<svg xmlns="http://www.w3.org/2000/svg" viewBox="0 0 1000 800" width="1000" height="800">
  <path d="M480.6 457.7L473.7 453.1L465.7 447.6L461.3 440.4L454.7 445.2L448.6 450.6L440.6 457.6L432.6 460.8L439.0 469.5L428.5 475.8L423.4 482.4L425.2 490.4L431.5 496.8L439.8 496.1L448.1 499.8L456.1 496.1L464.6 495.3L467.8 486.4L463.7 479.1L471.8 478.1L479.4 475.1L477.5 466.0L480.6 457.7L480.6 457.7Z" fill="#a8873a" fill-opacity="0.3" stroke="#a8873a" stroke-opacity="0.5" stroke-width="1" data-entity="金" />
  <path d="M489.2 495.8L486.0 485.9L493.5 481.7L488.5 474.3L479.4 475.1L474.7 482.6L475.1 491.3L465.7 493.3L465.2 502.3L466.7 510.4L489.2 495.8Z" fill="#a8873a" fill-opacity="0.3" stroke="#a8873a" stroke-opacity="0.5" stroke-width="1" data-entity="金" />
  <path d="M484.1 455.1L478.1 460.4L479.0 469.6L487.2 471.9L493.3 478.1L486.1 482.2L488.0 490.3L551.7 476.4L547.6 467.4L546.4 459.0L537.4 459.2L530.6 453.4L526.9 442.8L532.2 436.1L536.9 428.8L528.3 428.7L520.2 427.4L511.3 428.9L509.4 421.0L504.6 413.0L510.1 406.6L508.1 398.2L501.0 393.5L499.9 384.8L494.0 377.9L484.4 377.3L475.8 382.7L467.9 385.3L467.3 393.9L464.2 402.4L455.7 402.5L447.1 404.2L441.5 410.2L435.5 404.0L427.8 409.3L420.2 413.8L412.3 417.4L407.6 410.8L407.8 400.9L400.2 397.1L395.1 403.4L386.9 409.9L387.5 418.2L379.5 422.1L380.0 431.8L380.1 441.9L383.3 449.5L387.9 456.7L390.2 465.9L386.3 473.0L379.7 479.1L386.1 484.4L393.3 489.1L396.2 497.3L394.8 506.4L391.6 513.9L384.1 517.0L375.1 519.4L376.1 528.3L369.1 534.8L366.8 542.6L371.3 549.3L377.2 555.0L380.2 564.0L384.3 571.4L380.1 579.5L375.9 588.4L373.8 596.2L369.0 603.8L367.8 612.1L373.6 618.2L382.6 619.5L391.2 622.2L398.4 626.5L406.4 627.0L414.4 623.9L421.6 628.0L423.3 619.8L420.5 611.3L425.0 603.5L466.4 513.1L464.8 504.7L464.6 495.3L456.1 496.1L448.1 499.8L440.3 496.8L432.3 498.1L424.9 494.0L426.3 485.3L428.3 476.7L436.1 473.1L433.7 463.1L439.6 456.9L446.5 451.5L450.6 444.1L459.0 440.4L464.7 447.3L470.6 453.3L479.7 454.7L484.1 455.1Z" fill="#a8873a" fill-opacity="0.3" stroke="#a8873a" stroke-opacity="0.5" stroke-width="1" data-entity="金" />
  <path d="M476.5 477.2L468.6 478.8L467.5 486.9L473.5 495.0L475.9 486.9L475.9 477.8L476.5 477.2Z" fill="#a8873a" fill-opacity="0.3" stroke="#a8873a" stroke-opacity="0.5" stroke-width="1" data-entity="金" />
  <path d="M273.1 682.7L282.9 682.6L290.8 678.9L298.5 675.9L306.5 674.4L313.6 668.1L321.9 665.7L325.5 658.4L336.6 660.3L345.8 658.8L353.1 655.3L360.4 650.7L367.7 645.5L370.8 637.6L371.5 629.6L372.3 620.5L367.6 613.4L365.0 605.5L371.3 600.0L374.6 592.4L378.0 583.0L384.4 572.5L381.1 564.1L377.2 555.0L371.3 549.3L366.8 542.6L369.1 534.8L375.0 528.1L374.2 519.5L381.1 514.3L391.2 516.1L393.7 507.2L397.8 497.0L393.1 489.7L387.2 483.6L378.2 479.8L383.8 472.9L391.7 470.7L388.8 461.9L386.4 454.2L379.4 460.3L371.6 463.0L362.7 468.0L353.6 465.8L346.6 472.4L336.6 470.0L328.3 473.8L323.6 483.6L320.1 492.4L311.2 494.3L304.1 498.3L296.7 502.8L296.4 513.2L291.0 520.2L290.5 528.4L288.8 537.3L282.7 543.7L276.9 549.8L277.3 558.8L283.7 565.7L285.5 573.7L280.6 580.7L277.7 589.5L274.0 598.6L274.5 607.4L276.4 615.8L275.1 625.6L276.7 633.6L279.0 642.6L276.0 653.1L272.6 661.0L269.6 670.3L268.6 679.4L273.1 682.7Z" fill="#a8873a" fill-opacity="0.3" stroke="#a8873a" stroke-opacity="0.5" stroke-width="1" data-entity="金" />
  <path d="M53.6 515.2L61.1 508.9L71.1 504.2L78.8 501.3L84.5 507.6L89.3 515.8L84.4 523.0L78.9 532.6L65.7 541.7L69.3 551.1L81.2 573.2L88.6 579.4L95.6 575.5L107.1 574.4L116.2 570.9L124.9 568.0L133.1 565.7L137.9 556.9L136.8 548.7L137.5 540.7L139.5 530.6L141.8 522.5L147.0 513.2L154.7 507.8L163.0 505.3L168.3 514.9L167.6 524.9L162.4 534.3L160.5 542.3L164.6 549.6L172.8 552.5L182.3 553.8L189.1 561.1L197.5 563.5L203.0 570.3L211.2 570.6L220.9 570.2L225.8 561.9L233.1 556.3L231.3 547.8L235.8 538.9L242.9 533.3L247.2 525.4L253.6 518.3L260.6 511.7L268.3 508.2L276.2 505.2L285.1 504.1L292.1 497.8L301.6 502.9L305.3 495.7L314.9 496.4L320.5 488.3L325.3 480.4L330.3 472.2L340.1 471.3L348.1 467.6L358.6 464.3L367.8 466.9L374.8 460.2L383.3 459.0L384.0 450.3L380.1 441.9L380.8 433.7L379.3 425.7L387.8 420.9L387.0 412.0L391.1 404.4L396.1 397.1L404.4 396.3L408.4 406.7L407.6 416.0L416.5 417.4L423.5 412.4L431.2 406.8L440.3 408.4L449.3 402.8L458.2 404.1L466.6 400.8L467.8 392.3L469.4 384.3L478.4 382.1L486.0 377.8L494.1 376.8L499.9 384.8L501.0 393.5L505.8 400.3L510.0 407.7L504.7 414.5L508.1 422.6L515.7 427.2L525.1 426.5L532.5 429.7L541.0 424.6L538.9 415.2L539.7 406.7L541.2 397.9L540.1 389.4L548.2 391.4L554.7 396.1L558.2 404.6L560.6 413.2L567.0 406.2L573.2 400.9L581.1 393.3L589.1 390.9L597.8 385.9L606.3 381.9L614.5 380.5L619.7 373.3L628.8 373.9L635.7 368.1L644.4 372.8L652.4 369.2L656.6 361.4L664.9 360.8L668.7 353.8L665.1 344.2L658.0 338.6L664.3 333.2L660.7 321.9L660.4 313.4L654.8 305.8L644.6 303.5L634.5 309.7L627.9 303.0L623.0 296.0L624.1 288.0L621.7 280.3L623.4 270.6L623.5 262.5L618.9 254.9L615.2 247.8L613.8 239.3L621.8 240.9L630.2 242.0L638.2 245.6L643.8 239.6L650.3 231.6L653.1 223.0L649.2 213.2L657.2 209.2L666.9 206.1L666.9 197.3L658.9 193.1L655.5 200.4L646.1 201.0L642.2 193.7L637.4 187.1L632.9 180.4L635.3 170.8L641.9 165.6L650.1 159.8L656.5 154.0L664.9 147.5L671.1 139.7L679.2 130.9L686.4 124.5L688.1 132.8L691.1 140.4L695.0 132.5L694.2 123.6L696.9 115.0L699.8 107.2L702.8 98.3L711.9 97.8L427.9 152.0L438.6 162.5L444.3 156.3L453.9 155.7L464.0 153.1L473.0 156.3L481.7 164.4L494.5 147.8L503.2 147.1L512.6 147.8L523.0 158.7L533.8 163.4L540.7 171.6L546.4 179.3L552.5 186.9L555.4 196.2L557.6 205.1L550.0 210.6L540.9 209.8L532.0 206.7L523.5 204.9L513.3 205.4L503.7 206.6L496.1 211.0L488.0 209.8L481.9 215.9L473.1 220.5L464.7 220.5L457.5 224.7L448.5 237.3L449.0 245.5L441.5 249.3L431.5 258.9L421.5 261.7L410.2 262.3L398.8 261.3L394.6 269.3L386.6 276.8L378.1 281.9L369.9 289.0L354.5 286.7L346.7 285.0L339.2 281.2L333.1 275.6L324.7 275.2L314.3 279.6L310.2 287.6L308.5 296.1L304.3 303.7L307.7 311.5L312.5 318.7L320.1 327.4L309.6 340.1L302.1 343.3L293.6 346.5L286.2 355.0L280.6 363.7L274.8 370.0L265.9 374.3L253.9 378.2L246.5 383.1L232.8 383.1L223.2 384.9L211.1 383.9L202.9 384.1L194.4 384.8L186.3 383.1L174.0 388.7L160.9 391.8L152.9 395.5L143.1 400.2L135.0 403.6L124.4 409.6L113.2 418.2L103.6 415.7L98.9 406.5L85.5 409.3L53.6 515.2Z" fill="#a8873a" fill-opacity="0.3" stroke="#a8873a" stroke-opacity="0.5" stroke-width="1" data-entity="金" />
  <path d="M669.0 487.2L677.2 487.5L685.1 485.7L688.7 478.5L694.0 471.9L700.7 465.9L708.9 459.6L716.3 456.2L723.2 452.0L729.5 446.5L730.5 437.8L727.6 429.6L723.1 421.1L717.9 414.4L717.6 404.5L721.7 397.6L716.7 390.8L712.6 383.5L708.8 376.1L704.2 368.3L703.7 359.8L696.1 365.0L688.6 361.2L687.2 352.6L679.6 349.7L674.4 342.4L669.7 350.0L666.2 359.6L656.6 361.4L652.4 369.2L644.4 372.8L636.4 369.7L629.2 374.5L621.3 372.9L615.8 379.1L609.2 383.9L600.8 382.4L594.8 388.1L585.9 390.7L578.2 395.3L571.4 402.1L565.2 407.6L558.1 402.5L555.2 394.7L547.9 390.4L538.1 391.0L541.0 400.6L539.1 409.3L542.2 417.9L539.6 426.0L535.4 433.4L528.7 438.1L526.0 447.3L531.4 454.5L538.8 459.7L547.8 462.7L548.8 471.4L580.2 460.7L585.2 453.7L591.9 449.2L602.4 448.0L611.1 447.3L617.2 452.6L626.4 460.2L669.0 487.2Z" fill="#a8873a" fill-opacity="0.3" stroke="#a8873a" stroke-opacity="0.5" stroke-width="1" data-entity="金" />
  <path d="M584.3 460.3L583.5 459.9L584.3 460.3Z" fill="#a8873a" fill-opacity="0.3" stroke="#a8873a" stroke-opacity="0.5" stroke-width="1" data-entity="金" />
  <path d="M671.4 490.0Z" fill="#a8873a" fill-opacity="0.3" stroke="#a8873a" stroke-opacity="0.5" stroke-width="1" data-entity="金" />
  <path d="M851.9 367.2L874.3 335.5L868.7 329.3L868.2 320.4L861.6 325.1L855.9 318.9L849.6 324.4L841.5 325.3L833.9 329.0L832.6 338.2L823.9 339.0L820.6 331.1L816.8 322.2L811.8 313.5L812.1 304.5L804.6 301.6L799.7 309.6L795.2 317.4L789.2 311.8L782.5 303.0L779.7 293.8L770.8 294.4L767.5 285.7L768.5 277.3L761.8 272.6L755.2 267.7L747.0 270.7L738.2 271.5L731.1 266.0L728.9 256.6L720.3 260.7L711.3 262.1L705.8 255.6L697.3 259.8L689.2 257.3L682.5 251.1L679.8 242.8L679.7 233.9L678.1 226.0L668.9 224.7L659.5 225.9L652.2 230.3L642.7 232.7L642.9 242.0L634.7 245.0L626.2 243.0L617.0 236.3L612.2 243.1L618.2 249.0L621.0 258.3L626.2 266.7L622.7 275.4L622.0 285.9L622.5 294.5L627.9 303.0L633.5 310.2L641.8 304.7L649.6 299.6L657.1 309.6L658.8 318.9L662.8 326.1L664.9 335.2L658.3 341.0L667.0 346.2L674.4 342.4L679.6 349.7L687.2 352.6L688.6 361.2L696.1 365.0L701.2 358.1L704.0 365.9L708.2 374.2L711.6 381.8L715.1 389.4L720.8 395.3L717.3 402.5L718.1 410.7L722.7 419.7L726.0 427.1L730.4 434.2L728.5 442.3L735.9 445.9L741.2 439.8L748.1 431.9L753.0 425.2L755.0 417.1L762.3 411.5L771.1 415.6L776.8 422.0L784.8 424.1L793.4 424.6L801.2 426.9L806.7 419.9L802.7 412.6L800.9 403.5L809.8 400.8L818.7 400.7L826.7 397.6L833.8 392.0L837.4 384.2L851.9 367.2Z" fill="#a8873a" fill-opacity="0.3" stroke="#a8873a" stroke-opacity="0.5" stroke-width="1" data-entity="金" />
  <path d="M665.8 226.2L674.2 222.8L678.4 229.7L677.7 238.6L679.1 246.5L685.8 253.3L693.0 259.0L701.8 258.5L709.9 260.2L719.2 261.7L726.8 256.4L730.1 264.1L735.7 270.0L744.9 271.8L753.7 267.9L761.7 271.6L768.5 277.3L767.5 285.7L769.2 295.5L779.7 293.8L783.1 301.9L785.6 310.6L791.3 317.1L800.5 314.6L799.3 305.5L806.5 300.6L811.8 306.8L813.5 315.4L816.7 324.6L821.2 333.0L828.0 339.7L833.9 332.7L840.0 326.5L848.4 324.9L854.6 319.1L859.7 326.9L865.4 320.8L868.7 329.3L874.3 335.5L890.4 290.5L889.8 281.5L897.7 278.7L906.0 275.2L910.6 267.9L946.4 146.9L938.4 150.1L934.7 157.7L926.6 159.1L916.9 161.3L907.7 161.5L897.8 160.4L888.0 162.1L883.9 151.7L877.2 143.8L881.7 136.7L879.5 128.4L873.4 121.1L875.9 113.3L869.6 107.9L860.7 105.5L854.7 98.6L850.2 91.8L843.8 85.5L835.5 85.5L825.5 82.2L819.9 76.4L809.4 76.6L801.4 78.3L792.3 76.4L788.1 68.6L714.8 90.9L707.9 96.2L702.7 102.6L699.4 110.7L696.6 120.2L693.8 128.6L695.3 136.5L692.5 144.1L689.5 135.8L688.0 126.0L679.2 130.9L671.1 139.7L666.1 146.5L657.8 150.6L653.7 158.2L644.4 162.9L636.8 168.6L631.6 177.2L636.5 185.7L643.6 189.7L646.1 201.0L653.8 203.9L661.0 196.7L667.7 204.4L659.8 206.6L651.8 209.8L651.6 220.9L659.5 225.9L665.8 226.2Z" fill="#a8873a" fill-opacity="0.3" stroke="#a8873a" stroke-opacity="0.5" stroke-width="1" data-entity="金" />
  <path d="M479.5 684.1L472.1 680.0L467.9 672.1L459.0 670.4L452.5 677.1L458.1 685.9L465.1 690.4L471.7 696.4L477.9 702.0L486.4 703.0L492.7 708.3L499.2 713.3L503.2 723.1L498.2 730.7L506.5 733.3L548.9 683.9L543.4 677.4L535.8 672.2L538.3 664.0L528.1 666.7L523.8 673.9L516.3 678.9L512.4 687.3L504.0 687.0L498.6 679.9L490.6 684.6L482.2 684.5L479.5 684.1Z" fill="#a8873a" fill-opacity="0.3" stroke="#a8873a" stroke-opacity="0.5" stroke-width="1" data-entity="金" />
  <path d="M458.3 703.8L453.5 711.5L445.1 714.8L439.9 707.3L433.6 702.1L427.0 708.9L429.7 719.2L421.6 721.4L420.6 729.5L506.5 736.0L499.3 732.0L500.8 723.9L505.0 716.4L497.1 714.4L490.3 706.7L482.3 703.2L474.1 700.7L469.3 694.2L463.5 688.0L455.1 683.7L446.3 683.6L449.4 692.1L457.8 694.8L458.3 703.8L458.3 703.8Z" fill="#a8873a" fill-opacity="0.3" stroke="#a8873a" stroke-opacity="0.5" stroke-width="1" data-entity="金" />
  <path d="M451.6 681.3L453.7 672.0L463.7 671.3L470.9 677.0L474.7 684.2L484.1 686.9L494.1 685.7L501.6 680.9L505.3 688.0L513.1 686.1L517.9 678.6L524.0 672.8L530.6 666.2L538.9 665.4L426.3 603.4L420.5 611.3L421.6 620.3L424.0 629.9L420.6 639.1L428.1 634.5L436.3 631.5L431.4 639.4L422.1 647.5L415.8 652.7L409.4 658.7L405.3 666.4L414.5 668.1L423.4 675.3L426.0 683.4L434.1 683.4L443.5 682.5L451.6 681.3Z" fill="#a8873a" fill-opacity="0.3" stroke="#a8873a" stroke-opacity="0.5" stroke-width="1" data-entity="金" />
  <path d="M425.4 635.5L425.4 635.5Z" fill="#a8873a" fill-opacity="0.3" stroke="#a8873a" stroke-opacity="0.5" stroke-width="1" data-entity="金" />
  <path d="M419.6 732.8L420.1 724.7L427.5 719.5L429.5 709.0L432.6 701.6L440.5 705.6L444.4 713.3L452.6 711.3L459.5 705.2L456.6 697.0L449.4 692.1L446.3 683.6L435.6 683.9L427.1 683.9L423.4 675.3L417.2 669.7L409.2 668.6L408.6 659.3L414.4 653.0L420.9 648.0L426.4 641.4L433.7 637.0L441.9 632.7L433.9 631.9L425.9 635.7L425.1 627.0L416.7 624.0L408.1 629.7L400.0 626.6L391.5 623.2L383.3 621.7L375.3 619.4L372.3 626.9L370.1 636.4L369.7 645.1L362.8 649.7L355.6 655.4L347.7 659.4L336.6 660.3L328.6 659.7L323.2 666.2L313.6 668.1L306.5 674.4L298.5 675.9L290.8 678.9L282.9 682.6L274.4 683.2L276.8 692.2L280.1 700.3L279.3 708.4L419.6 732.8Z" fill="#a8873a" fill-opacity="0.3" stroke="#a8873a" stroke-opacity="0.5" stroke-width="1" data-entity="金" />
  <path d="M273.1 682.7L268.7 672.6L272.9 663.3L276.0 653.1L279.9 645.2L278.1 636.1L275.1 625.6L276.3 617.1L275.1 608.7L274.4 600.0L276.5 591.4L281.5 584.1L284.7 574.5L283.7 565.7L277.3 558.8L276.9 549.8L282.7 543.7L288.8 537.3L290.5 528.4L291.0 520.2L296.7 513.8L297.1 505.5L296.2 497.1L288.3 499.4L283.6 507.2L274.7 504.4L266.3 501.6L263.0 510.7L255.6 516.2L250.6 524.6L244.0 529.7L237.9 536.1L232.2 543.5L234.1 553.6L226.0 555.3L226.0 565.2L218.1 568.7L209.6 569.7L201.7 565.1L192.8 561.3L186.9 568.1L182.7 575.2L180.6 583.7L181.0 592.6L188.3 599.6L198.3 603.3L204.0 609.8L212.4 611.0L220.7 615.6L223.4 626.5L219.0 634.5L217.6 642.7L221.0 653.0L213.0 658.1L203.7 659.0L194.7 656.9L195.4 665.9L188.0 671.5L180.0 672.6L172.8 667.2L163.8 664.6L280.0 709.7L279.4 700.7L274.5 694.0L272.5 685.7L273.1 682.7Z" fill="#a8873a" fill-opacity="0.3" stroke="#a8873a" stroke-opacity="0.5" stroke-width="1" data-entity="金" />
  <path d="M157.7 641.3L156.5 650.7L153.6 658.3L147.8 652.3L125.7 627.8L126.5 619.8L122.5 611.9L121.1 603.8L117.8 594.8L110.4 591.0L102.1 587.1L98.6 578.4L90.2 579.2L81.2 573.2L69.3 551.1L65.7 541.7L78.9 532.6L83.5 524.4L88.8 517.4L84.5 507.6L78.8 501.3L71.1 504.2L61.1 508.9L53.6 515.2L157.4 668.0L167.6 665.3L175.1 669.1L183.4 671.2L191.5 670.6L193.8 662.1L201.1 658.6L209.4 658.9L218.5 657.1L220.9 648.6L218.1 641.0L221.6 633.6L221.5 622.3L217.4 614.1L209.5 610.6L202.4 606.4L195.3 602.3L186.7 598.0L180.5 590.9L172.4 590.6L164.4 590.1L159.0 596.8L161.9 604.9L155.9 611.1L157.5 620.1L165.7 623.8L170.3 631.2L169.4 640.5L161.5 642.1L157.7 641.3Z" fill="#a8873a" fill-opacity="0.3" stroke="#a8873a" stroke-opacity="0.5" stroke-width="1" data-entity="金" />
  <path d="M144.1 650.1L144.1 650.1Z" fill="#a8873a" fill-opacity="0.3" stroke="#a8873a" stroke-opacity="0.5" stroke-width="1" data-entity="金" />
  <path d="M144.9 651.9L144.9 651.9Z" fill="#a8873a" fill-opacity="0.3" stroke="#a8873a" stroke-opacity="0.5" stroke-width="1" data-entity="金" />
  <path d="M157.7 641.4L157.7 641.4Z" fill="#a8873a" fill-opacity="0.3" stroke="#a8873a" stroke-opacity="0.5" stroke-width="1" data-entity="金" />
  <path d="M180.5 590.9L180.1 582.0L183.4 572.6L189.5 565.5L185.6 557.2L178.1 551.3L168.2 551.2L159.2 547.1L162.0 539.2L163.8 529.8L171.1 521.3L167.2 511.6L161.8 505.3L151.0 509.0L145.6 515.8L142.5 524.5L138.3 532.7L137.8 542.4L135.8 552.5L136.8 562.3L130.7 568.4L122.3 568.3L113.7 572.9L101.7 575.1L92.7 577.8L103.4 579.4L108.6 586.7L114.1 594.3L121.2 599.5L119.5 608.3L123.7 615.3L126.6 623.4L143.2 649.3L149.9 655.2L157.7 653.1L156.4 644.7L165.0 643.1L169.9 634.2L168.7 625.1L159.3 620.9L156.2 613.3L158.2 605.4L160.6 597.7L161.0 589.6L169.2 590.9L177.9 589.3L180.5 590.9Z" fill="#a8873a" fill-opacity="0.3" stroke="#a8873a" stroke-opacity="0.5" stroke-width="1" data-entity="金" />
  <path d="M144.1 650.4L144.1 650.4Z" fill="#a8873a" fill-opacity="0.3" stroke="#a8873a" stroke-opacity="0.5" stroke-width="1" data-entity="金" />
  <path d="M144.9 651.7L144.9 651.7Z" fill="#a8873a" fill-opacity="0.3" stroke="#a8873a" stroke-opacity="0.5" stroke-width="1" data-entity="金" />
</svg>
